<svg xmlns="http://www.w3.org/2000/svg" viewBox="0 0 47.5 47.5" id="chair"><defs><clipPath id="a"><path d="M0 38h38V0H0v38Z"></path></clipPath></defs><g clip-path="url(#a)" transform="matrix(1.25 0 0 -1.25 0 47.5)"><path fill="#9aaab4" d="M12 10a2 2 0 0 0-4 0v11a2 2 0 0 0 4 0V10ZM32 10a2 2 0 0 0-4 0v11a2 2 0 0 0 4 0V10Z"></path><path fill="#67757f" d="M30 3a2 2 0 0 0-4 0v6a2 2 0 0 0 4 0V3ZM14 3a2 2 0 0 0-4 0v6a2 2 0 0 0 4 0V3Z"></path><path fill="#4289c1" d="M30 19a4 4 0 0 0-4-4H14a4 4 0 0 0-4 4v14a4 4 0 0 0 4 4h12a4 4 0 0 0 4-4V19Z"></path><path fill="#e1e8ed" d="M24 29h-8v8h8v-8z"></path><path fill="#ccd6dd" d="M12 22a2 2 0 0 0-2-2H8a2 2 0 0 0 0 4h2a2 2 0 0 0 2-2M34 22a2 2 0 0 0-2-2h-2a2 2 0 0 0 0 4h2a2 2 0 0 0 2-2"></path><path fill="#5dadec" d="M30 14a3 3 0 0 0-3-3H13a3 3 0 1 0 0 6h14a3 3 0 0 0 3-3"></path><path fill="#2a6797" d="M30 8H10v6h20V8z"></path></g></svg>